<?xml version="1.0" standalone="no"?>
<!DOCTYPE svg PUBLIC "-//W3C//DTD SVG 20010904//EN"
 "http://www.w3.org/TR/2001/REC-SVG-20010904/DTD/svg10.dtd">
<svg version="1.0" xmlns="http://www.w3.org/2000/svg"
 width="784.000000pt" height="784.000000pt" viewBox="0 0 784.000000 784.000000"
 preserveAspectRatio="xMidYMid meet">
<metadata>
Created by potrace 1.14, written by Peter Selinger 2001-2017
</metadata>
<g transform="translate(0.000000,784.000000) scale(0.100000,-0.100000)"
fill="#000000" stroke="none">
<path d="M8 6633 c5 -10 571 -1236 1258 -2725 687 -1490 1251 -2708 1254
-2708 3 0 561 1205 1240 2677 679 1473 1245 2699 1257 2725 l22 48 -2520 0
c-2396 0 -2519 -1 -2511 -17z"/>
<path d="M4059 3917 l-1256 -2722 1259 -3 c692 -1 1825 -1 2517 0 l1259 3
-1256 2723 c-691 1497 -1259 2722 -1262 2722 -3 0 -570 -1225 -1261 -2723z
m2299 -194 l1031 -2238 -1034 -3 c-569 -1 -1500 -1 -2069 0 l-1034 3 1031
2238 c568 1230 1034 2237 1038 2237 3 0 470 -1007 1037 -2237z"/>
</g>
</svg>
